<?xml version="1.0" encoding="UTF-8" standalone="no"?>
<!-- Generator: Adobe Illustrator 16.0.4, SVG Export Plug-In . SVG Version: 6.00 Build 0)  -->
<svg id="Layer_1" xmlns:rdf="http://www.w3.org/1999/02/22-rdf-syntax-ns#" xmlns="http://www.w3.org/2000/svg" version="1.1" xml:space="preserve" height="210" viewBox="689.024 2199.478 1086.48 210" width="1086.5" enable-background="new 689.024 2199.478 1086.479 210" y="0px" x="0px" xmlns:cc="http://creativecommons.org/ns#" xmlns:dc="http://purl.org/dc/elements/1.1/"><metadata id="metadata517"><rdf:RDF><cc:Work rdf:about=""><dc:format>image/svg+xml</dc:format><dc:type rdf:resource="http://purl.org/dc/dcmitype/StillImage"/><dc:title/></cc:Work></rdf:RDF></metadata><g id="layer4"><rect id="rect379-3-8" fill-opacity="0" height="210" width="1086.5" y="2199.5" x="689.02"/><g id="g6"><path id="path385-4-1" d="m964.17 2318.2c-8.387 0-13.994-5.9569-13.994-13.75 0-7.7889 5.607-13.746 13.994-13.746 8.342 0 13.957 6.005 13.957 13.746 0 7.7461-5.568 13.75-13.957 13.75zm0-22.336c-4.809 0-7.59 3.225-7.59 8.5859 0 5.41 2.826 8.5881 7.59 8.5881 4.768 0 7.547-3.178 7.547-8.5881 0.051-5.3609-2.779-8.5859-7.547-8.5859z"/><path id="path387-5-2" d="m995.44 2308.9v8.9819h-6.24v-26.898h9.477c7.545 0 10.809 3.8181 10.809 8.785 0 5.3601-3.367 9.1311-10.809 9.1311h-3.237zm0-4.718h3.236c3.211 0 4.568-1.638 4.568-4.413 0-2.433-1.449-4.118-4.568-4.118h-3.236v8.531z"/><path id="path389-2-9" d="m1038.2 2291v4.8101h-11.018v6.2529h8.4321v4.6231h-8.4321v6.396h11.018v4.8159h-17.324v-26.898h17.324z"/><path id="path391-5-3" d="m1056.6 2292 12.768 16.13c-0.105-1.0361-0.158-2.029-0.158-2.879v-14.242h5.51v26.899h-3.225c-0.955 0-1.594-0.2481-2.182-1.0381l-12.662-16.032c0.051 0.942 0.1579 1.835 0.1579 2.6321v14.392h-5.5099v-26.897h3.2619c1.045 0.097 1.3981 0.2469 2.0391 1.0349z"/><g id="g393-4-9" transform="translate(.0000208 -542.97)"><path id="path395-7-0" d="m1117.1 2844.8h0.992c0.945 0 1.586-0.3 1.984-0.844l6.059-8.784c0.645-0.947 1.441-1.24 2.684-1.24h5.402l-7.938 10.868c-0.594 0.797-1.193 1.292-1.84 1.638 0.945 0.346 1.691 0.894 2.336 1.933l8.141 12.459h-5.562c-1.436 0-1.932-0.391-2.428-1.148l-6.109-9.373c-0.445-0.691-1.037-0.939-2.232-0.939h-1.488v11.461h-6.199v-26.897h6.252v10.868h-0.054z"/><path id="path397-4-8" d="m1152.2 2834.9 12.766 16.128c-0.104-1.038-0.156-2.029-0.156-2.878v-14.241h5.51v26.897h-3.213c-0.953 0-1.59-0.248-2.191-1.046l-12.664-16.021c0.053 0.939 0.158 1.833 0.158 2.63v14.386h-5.51v-26.893h3.277c1.029 0.098 1.344 0.248 2.023 1.038z"/><path id="path399-4-8" d="m1196.2 2861.2c-8.395 0-13.992-5.968-13.992-13.754s5.598-13.746 13.992-13.746c8.342 0 13.957 6.004 13.957 13.746 0 7.746-5.616 13.754-13.957 13.754zm0-22.336c-4.818 0-7.584 3.222-7.584 8.582 0 5.412 2.82 8.597 7.584 8.597 4.766 0 7.547-3.185 7.547-8.597-0.001-5.361-2.782-8.582-7.547-8.582z"/><path id="path401-3-5" d="m1217 2834h5.26c1.098 0 1.844 0.542 2.09 1.339l3.668 14.046c0.248 0.893 0.496 1.932 0.652 3.079 0.236-1.147 0.549-2.187 0.836-3.079l4.375-14.046c0.193-0.692 0.99-1.339 2.021-1.339h1.855c1.082 0 1.773 0.497 2.074 1.339l4.32 14.046c0.287 0.841 0.6 1.833 0.783 2.925 0.209-1.092 0.404-2.084 0.652-2.925l3.684-14.046c0.182-0.745 0.99-1.339 2.035-1.339h4.908l-8.289 26.897h-5.654l-5.064-16.677c-0.156-0.497-0.352-1.141-0.547-1.832-0.156 0.691-0.354 1.284-0.547 1.832l-5.119 16.677h-5.652l-8.341-26.897z"/><path id="path403-0-0" d="m1273.6 2855.9h9.975v4.962h-16.229v-26.897h6.254v21.935z"/><path id="path405-7-9" d="m1314.2 2834v4.81h-11.02v6.253h8.434v4.622h-8.434v6.396h11.02v4.816h-17.311v-26.897h17.311z"/><path id="path407-8-6" d="m1337.7 2860.9h-10.418v-26.897h10.418c8.354 0 13.955 5.704 13.955 13.446 0.039 7.746-5.561 13.451-13.955 13.451zm0-22.088h-4.166v17.271h4.166c4.777 0 7.547-3.277 7.547-8.635 0.052-5.36-2.77-8.636-7.547-8.636z"/><path id="path409-6-3" d="m1379.6 2855.6v-4.066h-2.676c-0.795 0-1.24-0.452-1.24-1.092v-3.427h9.568v11.365c-2.713 2.037-5.898 2.871-10.312 2.871-7.844 0-13.76-5.848-13.76-13.739 0-8.042 5.562-13.746 14.205-13.746 4.518 0 7.844 1.532 10.025 3.624l-1.789 2.728c-0.352 0.494-0.848 0.841-1.396 0.841-0.338 0-0.73-0.149-1.123-0.347-1.998-1.188-3.395-1.683-5.875-1.683-4.66 0-7.584 3.42-7.584 8.583 0 5.698 3.328 8.935 7.846 8.935 1.632-0.052 2.925-0.352 4.111-0.847z"/><path id="path411-8-8" d="m1415.2 2834v4.81h-11.018v6.253h8.445v4.622h-8.445v6.396h11.018v4.816h-17.324v-26.897h17.324z"/></g><rect id="rect415-4-5" transform="rotate(216.76)" height="49.661" width="5.999" y="-1295.4" x="-2041.3"/><rect id="rect417-3-6" transform="rotate(206.45)" height="23.935" width="5.9991" y="-1638" x="-1765.8"/><polygon id="polygon419-1-1" points="845.9 2753.9 851.66 2755.5 841.18 2791.6 835.41 2790" transform="translate(.0000208 -542.97)"/><polygon id="polygon421-4-1" points="830.55 2789 824.58 2788.4 827.03 2764.6 833 2765.2" transform="translate(.0000208 -542.97)"/><polygon id="polygon423-9-5" points="813.61 2788.8 811.56 2762.1 817.55 2761.6 819.58 2788.3" transform="translate(.0000208 -542.97)"/><polygon id="polygon425-2-9" points="802.87 2791.1 798.24 2773.4 804.04 2771.9 808.7 2789.6" transform="translate(.0000208 -542.97)"/><rect id="rect427-0-8" transform="rotate(245.06)" height="5.9958" width="12.306" y="-231.14" x="-2376.6"/><polygon id="polygon429-6-4" points="783.54 2801.3 780.77 2797.4 785.65 2793.9 788.45 2797.8" transform="translate(.0000208 -542.97)"/><polygon id="polygon431-8-8" points="775.54 2808.8 761.46 2795 765.66 2790.7 779.74 2804.5" transform="translate(.0000208 -542.97)"/><polygon id="polygon433-9-1" points="769 2817.6 747.24 2802.7 750.61 2797.7 772.37 2812.7" transform="translate(.0000208 -542.97)"/><polygon id="polygon435-2-0" points="764.15 2827.5 750.44 2821.4 752.87 2815.9 766.58 2822" transform="translate(.0000208 -542.97)"/><polygon id="polygon437-6-3" points="720.51 2828.2 761.12 2838 762.54 2832.2 721.94 2822.4" transform="translate(.0000208 -542.97)"/><rect id="rect439-6-0" transform="matrix(-.99830 -.0582 .0582 -.99830 0 0)" height="5.995" width="30.356" y="-2257.8" x="-893.06"/><polygon id="polygon441-4-4" points="760.2 2853.9 760.92 2859.9 731.55 2863.4 730.83 2857.5" transform="translate(.0000208 -542.97)"/><polygon id="polygon443-9-4" points="761.95 2864.7 763.73 2870.5 757.15 2872.5 755.38 2866.8" transform="translate(.0000208 -542.97)"/><polygon id="polygon445-5-4" points="765.62 2875.1 768.4 2880.4 746.31 2891.9 743.54 2886.6" transform="translate(.0000208 -542.97)"/><polygon id="polygon447-0-4" points="771.07 2884.6 774.75 2889.3 753.54 2905.8 749.86 2901.1" transform="translate(.0000208 -542.97)"/><polygon id="polygon449-4-7" points="778.17 2893 782.64 2897 765.17 2916.5 760.7 2912.4" transform="translate(.0000208 -542.97)"/><polygon id="polygon451-8-6" points="786.6 2900 791.7 2903.1 785.38 2913.4 780.27 2910.3" transform="translate(.0000208 -542.97)"/><polygon id="polygon453-7-3" points="793.22 2929.4 787.62 2927.2 796.19 2905.3 801.76 2907.5" transform="translate(.0000208 -542.97)"/><rect id="rect455-1-1" transform="matrix(-.98147 -.19159 .19159 -.98147 0 0)" height="21.59" width="5.9982" y="-2189.2" x="-1250.8"/><polygon id="polygon457-7-7" points="823.2 2925.7 817.18 2925.6 817.38 2910.6 823.4 2910.7" transform="translate(.0000208 -542.97)"/><polygon id="polygon459-2-5" points="833.17 2938.9 828.34 2910.3 834.29 2909.3 839.08 2937.9" transform="translate(.0000208 -542.97)"/><polygon id="polygon461-7-9" points="844.75 2906 850.69 2922.5 845.05 2924.5 839.11 2908" transform="translate(.0000208 -542.97)"/><polygon id="polygon463-2-6" points="849.25 2903.9 871.04 2941 876.21 2938 854.45 2900.9" transform="translate(.0000208 -542.97)"/><polygon id="polygon465-2-2" points="861.96 2901.6 858.65 2898.2 862.99 2894 866.3 2897.4" transform="translate(.0000208 -542.97)"/><polygon id="polygon467-6-1" points="881.55 2902.9 866.59 2890.6 870.38 2885.9 885.35 2898.2" transform="translate(.0000208 -542.97)"/><polygon id="polygon469-1-7" points="888.49 2890.3 873.21 2881.8 876.12 2876.6 891.4 2885.1" transform="translate(.0000208 -542.97)"/><polygon id="polygon471-0-8" points="885.52 2874.6 878.12 2872 880.07 2866.4 887.43 2868.9" transform="translate(.0000208 -542.97)"/><polygon id="polygon473-6-5" points="882.12 2855.6 905.26 2859 904.37 2865 881.23 2861.5" transform="translate(.0000208 -542.97)"/><polygon id="polygon475-1-7" points="882.44 2850.6 882.24 2844.6 897.09 2844.1 897.26 2850.1" transform="translate(.0000208 -542.97)"/><polygon id="polygon477-5-4" points="898.72 2829.9 899.98 2835.7 881.64 2839.7 880.38 2833.8" transform="translate(.0000208 -542.97)"/><polygon id="polygon479-9-1" points="878.9 2829 876.61 2823.5 888.46 2818.6 890.75 2824.2" transform="translate(.0000208 -542.97)"/><polygon id="polygon481-4-8" points="874.32 2819.1 871.1 2814 902.43 2793.9 905.65 2799" transform="translate(.0000208 -542.97)"/><polygon id="polygon483-9-5" points="868.04 2810.1 863.96 2805.7 868.67 2801.3 872.78 2805.7" transform="translate(.0000208 -542.97)"/><g id="g485-0-9" transform="translate(.0000208 -542.97)"><path id="path487-9-7" d="m814.38 2845.3c-0.174-0.458-0.316-0.973-0.488-1.544-0.143 0.571-0.287 1.086-0.457 1.544-0.141 0.484-0.312 0.886-0.426 1.227l-1.828 5.454h5.453l-1.826-5.481c-0.145-0.314-0.258-0.715-0.428-1.2z"/><path id="path489-1-5" d="m858.96 2850.7-0.141-4.396-13.338 0.4 13.051-2.771-0.912-4.312-13.051 2.769 12.338-5.053-1.656-4.056-12.336 5.056 11.219-7.171-2.369-3.71-11.25 7.195 9.768-9.08-3.002-3.229-9.736 9.085 7.998-10.683-3.516-2.628-7.996 10.682 5.969-11.936-3.941-1.972-5.967 11.934 3.74-12.79-4.225-1.229-3.744 12.792 1.402-13.251-4.369-0.457-1.457 13.737-1.084-13.765-4.398 0.344 1.029 13.278-3.344-12.908-4.256 1.111 3.398 12.909-5.656-12.078-3.994 1.854 5.65 12.082-7.709-10.88-3.598 2.539 7.711 10.88-9.539-9.337-3.086 3.142 9.539 9.34-11.021-7.481-2.457 3.654 11.053 7.48-12.195-5.396-1.77 4.026 12.193 5.397-12.965-3.141-1.029 4.285 12.965 3.139-13.305-0.77-0.256 4.398 13.305 0.77-13.25 1.627 0.541 4.372 13.25-1.631-12.736 3.967 1.314 4.206 12.738-3.973-11.824 6.167 2.027 3.912 11.822-6.166-10.564 8.143 2.682 3.483 10.539-8.17-8.908 9.936 3.281 2.937 8.914-9.929-6.998 11.363 3.742 2.307 6.996-11.358-4.857 12.425 4.088 1.593 4.852-12.425-2.543 13.086 4.314 0.856 2.539-13.085-0.17 13.341 4.4 0.06 0.168-13.34 2.203 13.167 4.338-0.713-2.199-13.139 4.514 12.537 4.141-1.487-4.512-12.536 6.68 11.536 3.799-2.2-6.68-11.537 8.625 10.17 3.34-2.854-8.625-10.17 10.311 8.457 2.799-3.401-10.311-8.451 11.65 6.482 2.145-3.854-11.654-6.488 12.623 4.312 1.428-4.161-12.621-4.311 13.191 1.968 0.658-4.344-13.195-2.058 13.335-0.427zm-38.553 8.939c-0.396 0-0.742-0.084-0.998-0.286s-0.428-0.428-0.543-0.714l-1.168-3.486h-7.598l-1.172 3.486c-0.086 0.258-0.256 0.479-0.543 0.691-0.258 0.195-0.6 0.309-0.971 0.309h-3.625l7.736-19.963h4.744l7.736 19.963h-3.598zm17.539-16.308h-5.627v16.309h-4.629v-16.309h-5.627v-3.684h15.883v3.684z"/></g><g id="g491-7-3" transform="translate(.0000208 -542.97)"><path id="path493-7-8" d="m1478.4 2847.7c0 4.311-1.09 7.699-3.27 10.167-2.18 2.469-5.209 3.702-9.088 3.702-3.967 0-7.027-1.212-9.182-3.638-2.156-2.425-3.232-5.848-3.232-10.269 0-4.383 1.08-7.781 3.24-10.194 2.162-2.413 5.23-3.619 9.209-3.619 3.869 0 6.889 1.228 9.062 3.684s3.261 5.845 3.261 10.167zm-21.457 0c0 3.647 0.777 6.413 2.33 8.298s3.809 2.827 6.77 2.827c2.982 0 5.236-0.939 6.758-2.818 1.523-1.878 2.285-4.647 2.285-8.307 0-3.622-0.758-6.369-2.275-8.242-1.516-1.872-3.76-2.809-6.732-2.809-2.982 0-5.252 0.942-6.805 2.827s-2.331 4.626-2.331 8.224zm3.996-18.382c0-0.638 0.164-1.099 0.488-1.381 0.326-0.282 0.715-0.424 1.17-0.424 0.467 0 0.869 0.142 1.207 0.424s0.506 0.743 0.506 1.381c0 0.614-0.168 1.071-0.506 1.372-0.338 0.302-0.74 0.451-1.207 0.451-0.455 0-0.844-0.149-1.17-0.451-0.324-0.301-0.488-0.758-0.488-1.372zm7.018 0c0-0.638 0.164-1.099 0.488-1.381 0.326-0.282 0.715-0.424 1.17-0.424s0.85 0.142 1.188 0.424 0.508 0.743 0.508 1.381c0 0.614-0.17 1.071-0.508 1.372-0.338 0.302-0.732 0.451-1.188 0.451s-0.844-0.149-1.17-0.451c-0.324-0.301-0.488-0.758-0.488-1.372z"/><path id="path495-1-8" d="m1507.9 2854.1c0 2.37-0.859 4.218-2.578 5.544-1.721 1.326-4.053 1.989-7 1.989-3.193 0-5.648-0.411-7.367-1.233v-3.021c1.105 0.467 2.309 0.836 3.609 1.105 1.303 0.271 2.592 0.405 3.869 0.405 2.086 0 3.658-0.396 4.715-1.188 1.055-0.792 1.584-1.894 1.584-3.306 0-0.933-0.188-1.697-0.562-2.293s-1-1.145-1.879-1.648c-0.877-0.504-2.213-1.074-4.006-1.713-2.504-0.896-4.295-1.959-5.369-3.187s-1.611-2.83-1.611-4.808c0-2.074 0.779-3.727 2.34-4.954 1.559-1.228 3.621-1.842 6.188-1.842 2.678 0 5.139 0.491 7.387 1.474l-0.977 2.726c-2.223-0.933-4.383-1.399-6.482-1.399-1.658 0-2.955 0.355-3.887 1.067-0.934 0.713-1.4 1.701-1.4 2.966 0 0.934 0.172 1.697 0.516 2.293s0.924 1.142 1.74 1.64c0.816 0.497 2.066 1.047 3.748 1.648 2.824 1.007 4.768 2.087 5.83 3.241s1.592 2.652 1.592 4.494z"/><path id="path497-1-3" d="m1530 2861.2h-3.131v-24.146h-8.529v-2.781h20.188v2.781h-8.527v24.146z"/><path id="path499-5-1" d="m1565.9 2861.2h-15.01v-26.928h15.01v2.781h-11.879v8.675h11.162v2.763h-11.162v9.909h11.879v2.8z"/><path id="path501-9-8" d="m1583.3 2850v11.198h-3.131v-26.928h7.385c3.303 0 5.744 0.633 7.322 1.896 1.578 1.266 2.367 3.168 2.367 5.71 0 3.562-1.807 5.968-5.416 7.221l7.312 12.101h-3.703l-6.52-11.198h-5.616zm0-2.69h4.291c2.211 0 3.832-0.438 4.863-1.316s1.547-2.195 1.547-3.951c0-1.78-0.525-3.063-1.574-3.85-1.051-0.785-2.736-1.179-5.057-1.179h-4.07v10.296z"/><path id="path503-7-9" d="m1614.9 2850v11.198h-3.131v-26.928h7.387c3.303 0 5.742 0.633 7.32 1.896 1.578 1.266 2.367 3.168 2.367 5.71 0 3.562-1.805 5.968-5.414 7.221l7.311 12.101h-3.701l-6.52-11.198h-5.619zm0-2.69h4.293c2.209 0 3.83-0.438 4.861-1.316s1.547-2.195 1.547-3.951c0-1.78-0.523-3.063-1.574-3.85-1.049-0.785-2.734-1.179-5.057-1.179h-4.07v10.296z"/><path id="path505-7-6" d="m1658.4 2861.2h-15.01v-26.928h15.01v2.781h-11.879v8.675h11.162v2.763h-11.162v9.909h11.879v2.8z"/><path id="path507-6-4" d="m1672.7 2861.2v-26.928h3.131v26.928h-3.131z"/><path id="path509-7-3" d="m1703 2836.7c-2.959 0-5.295 0.985-7.008 2.956s-2.57 4.669-2.57 8.095c0 3.524 0.826 6.247 2.479 8.169 1.65 1.922 4.006 2.882 7.062 2.882 1.879 0 4.021-0.337 6.428-1.013v2.744c-1.865 0.7-4.168 1.05-6.906 1.05-3.967 0-7.027-1.203-9.182-3.609-2.154-2.407-3.232-5.827-3.232-10.26 0-2.774 0.52-5.206 1.557-7.294 1.037-2.087 2.535-3.695 4.494-4.825s4.264-1.694 6.916-1.694c2.824 0 5.293 0.516 7.404 1.547l-1.326 2.689c-2.04-0.958-4.077-1.437-6.116-1.437z"/><path id="path511-3-3" d="m1744 2861.2h-3.131v-12.672h-14.182v12.672h-3.131v-26.928h3.131v11.456h14.182v-11.456h3.131v26.928z"/></g></g></g></svg>
